# File created by Blade
# Date/Time:  Fri Jan 16 19:14:28 2015
# Frame Rate: 120.000 fps
#------------------------------------------------------
:FULLY-SPECIFIED
:DEGREES
504
root 18.797450 35.626513 -23.496464 -165.003955 -0.353600 -178.298981
Spine -32.043686 1.819368 0.350998
Head 26.268682 -2.670642 -0.590056
LeftShoulder -32.679147 -51.734423 58.859682
LeftArm 33.760570 -62.512914 -5.474829
LeftForeArm -12.411357 -0.000000 117.297735
LeftHand -18.226007 -0.000000 -21.925708
LeftHandThumb1 -26.253704 0.000000 33.147579
RightShoulder -21.375381 17.601112 -37.519623
RightArm 38.136625 79.758534 4.721017
RightForeArm -82.941574 0.000000 135.822194
RightHand -6.885752 -0.000000 42.515509
RightHandThumb1 -24.326973 -0.000000 -32.862282
LeftUpLeg -2.952965 7.495075 0.154450
LeftLeg -7.664189 -0.000000 0.000000
LeftFoot -22.209242 28.404268 -17.319314
LeftToeBase 23.301641 -0.000000 -0.000000
RightUpLeg -5.082930 -9.281483 1.346988
RightLeg -3.945540 -0.000000 0.000000
RightFoot -20.982492 -21.831740 21.248693
RightToeBase 22.383286 -0.000000 -0.000000
505
root 18.791486 35.625707 -23.501488 -165.004668 -0.342249 -178.304418
Spine -32.073568 1.815027 0.385020
Head 26.295578 -2.589108 -0.646945
LeftShoulder -32.694422 -51.713825 58.860215
LeftArm 33.845107 -62.499183 -5.545661
LeftForeArm -12.444209 -0.000000 117.548152
LeftHand -18.232507 -0.000000 -21.908981
LeftHandThumb1 -26.253704 0.000000 33.147579
RightShoulder -21.371811 17.574209 -37.492599
RightArm 37.885214 79.682070 4.409067
RightForeArm -82.991654 -0.000000 136.119531
RightHand -6.950517 -0.000000 42.738891
RightHandThumb1 -24.326973 -0.000000 -32.862282
LeftUpLeg -2.945499 7.507499 0.138175
LeftLeg -7.656514 -0.000000 0.000000
LeftFoot -22.217649 28.396119 -17.319317
LeftToeBase 23.300821 -0.000000 -0.000000
RightUpLeg -5.075262 -9.258217 1.326064
RightLeg -3.942543 -0.000000 0.000000
RightFoot -20.982174 -21.855392 21.239308
RightToeBase 22.377489 -0.000000 -0.000000
506
root 18.786740 35.625113 -23.507073 -165.004632 -0.341258 -178.307169
Spine -32.103487 1.807520 0.413940
Head 26.313059 -2.545957 -0.705992
LeftShoulder -32.698284 -51.693824 58.854098
LeftArm 33.951831 -62.509314 -5.634196
LeftForeArm -12.357418 -0.000000 117.797435
LeftHand -18.348939 -0.000000 -21.860088
LeftHandThumb1 -26.253704 0.000000 33.147579
RightShoulder -21.385335 17.566119 -37.484728
RightArm 37.719292 79.591539 4.206291
RightForeArm -83.007779 -0.000000 136.365464
RightHand -6.978934 -0.000000 42.648302
RightHandThumb1 -24.326973 -0.000000 -32.862282
LeftUpLeg -2.931600 7.501566 0.130111
LeftLeg -7.664675 -0.000000 0.000000
LeftFoot -22.218807 28.399351 -17.318556
LeftToeBase 23.295338 -0.000000 -0.000000
RightUpLeg -5.065388 -9.276542 1.316589
RightLeg -3.946389 -0.000000 0.000000
RightFoot -20.987505 -21.832559 21.249425
RightToeBase 22.393072 -0.000000 -0.000000
507
root 18.781329 35.624703 -23.511289 -165.000941 -0.337429 -178.312188
Spine -32.132786 1.812020 0.438610
Head 26.328781 -2.476789 -0.747790
LeftShoulder -32.568850 -51.562209 58.658015
LeftArm 34.139276 -62.682871 -5.750866
LeftForeArm -12.265951 -0.000000 117.994358
LeftHand -18.298317 -0.000000 -21.772336
LeftHandThumb1 -26.253704 0.000000 33.147579
RightShoulder -21.406912 17.476105 -37.460448
RightArm 37.718804 79.590264 4.167208
RightForeArm -83.094504 -0.000000 136.603529
RightHand -6.964812 -0.000000 42.716033
RightHandThumb1 -24.326973 -0.000000 -32.862282
LeftUpLeg -2.932156 7.508530 0.115443
LeftLeg -7.657189 -0.000000 0.000000
LeftFoot -22.238212 28.383855 -17.333798
LeftToeBase 23.308012 -0.000000 -0.000000
RightUpLeg -5.061916 -9.265403 1.300911
RightLeg -3.945688 -0.000000 0.000000
RightFoot -20.992314 -21.845729 21.254591
RightToeBase 22.386590 -0.000000 -0.000000
508
root 18.776221 35.623637 -23.515006 -164.988427 -0.339138 -178.312013
Spine -32.164667 1.802068 0.467177
Head 26.318439 -2.420320 -0.761190
LeftShoulder -32.519243 -51.473137 58.580602
LeftArm 34.290930 -62.805409 -5.866943
LeftForeArm -12.241932 -0.000000 118.215769
LeftHand -18.359984 -0.000000 -21.701815
LeftHandThumb1 -26.253704 0.000000 33.147579
RightShoulder -21.417647 17.491076 -37.447254
RightArm 37.557929 79.535418 3.980350
RightForeArm -83.192934 0.000000 136.802726
RightHand -6.917581 0.000000 42.709355
RightHandThumb1 -24.326973 -0.000000 -32.862282
LeftUpLeg -2.926766 7.474246 0.112508
LeftLeg -7.675004 -0.000000 0.000000
LeftFoot -22.241017 28.413753 -17.314245
LeftToeBase 23.300926 -0.000000 -0.000000
RightUpLeg -5.069929 -9.260479 1.294806
RightLeg -3.943552 -0.000000 0.000000
RightFoot -21.001695 -21.853960 21.262498
RightToeBase 22.388624 -0.000000 -0.000000
509
root 18.773026 35.623120 -23.518355 -164.980244 -0.339465 -178.308913
Spine -32.194369 1.805293 0.497431
Head 26.331422 -2.350322 -0.782136
LeftShoulder -32.487178 -51.420514 58.511344
LeftArm 34.456714 -62.893591 -6.014987
LeftForeArm -12.183627 -0.000000 118.424843
LeftHand -18.428066 -0.000000 -21.630376
LeftHandThumb1 -26.253704 0.000000 33.147579
RightShoulder -21.434214 17.459888 -37.418778
RightArm 37.541944 79.505006 3.906911
RightForeArm -83.249568 0.000000 136.971598
RightHand -6.825595 -0.000000 42.606140
RightHandThumb1 -24.326973 -0.000000 -32.862282
LeftUpLeg -2.925677 7.462056 0.111647
LeftLeg -7.682250 -0.000000 0.000000
LeftFoot -22.247635 28.421111 -17.341032
LeftToeBase 23.272984 -0.000000 -0.000000
RightUpLeg -5.056228 -9.210613 1.287974
RightLeg -3.973604 -0.000000 0.000000
RightFoot -21.015867 -21.910856 21.295176
RightToeBase 22.404363 -0.000000 -0.000000
510
root 18.767266 35.622622 -23.522177 -164.981830 -0.359425 -178.319135
Spine -32.210370 1.799414 0.518878
Head 26.341210 -2.286463 -0.796577
LeftShoulder -32.520118 -51.426211 58.513341
LeftArm 34.668011 -62.929979 -6.238263
LeftForeArm -12.026188 -0.000000 118.665992
LeftHand -18.562271 -0.000000 -21.681312
LeftHandThumb1 -26.253704 0.000000 33.147579
RightShoulder -21.454572 17.484897 -37.402421
RightArm 37.439849 79.443763 3.717405
RightForeArm -83.461997 -0.000000 137.153566
RightHand -6.764178 -0.000000 42.686166
RightHandThumb1 -24.326973 -0.000000 -32.862282
LeftUpLeg -2.920771 7.435802 0.098358
LeftLeg -7.680780 -0.000000 0.000000
LeftFoot -22.257104 28.419863 -17.345740
LeftToeBase 23.262508 -0.000000 -0.000000
RightUpLeg -5.055993 -9.267931 1.278127
RightLeg -3.957106 -0.000000 0.000000
RightFoot -21.017820 -21.877405 21.283810
RightToeBase 22.385378 -0.000000 -0.000000
511
root 18.761696 35.622343 -23.526428 -164.978727 -0.362397 -178.329019
Spine -32.233213 1.800786 0.536186
Head 26.351837 -2.230291 -0.807684
LeftShoulder -32.547123 -51.405716 58.505795
LeftArm 34.903389 -62.984422 -6.481359
LeftForeArm -11.927342 -0.000000 118.847233
LeftHand -18.593288 -0.000000 -21.688792
LeftHandThumb1 -26.253704 0.000000 33.147579
RightShoulder -21.470919 17.503400 -37.391155
RightArm 37.543750 79.409924 3.783785
RightForeArm -83.456860 -0.000000 137.309282
RightHand -6.884897 -0.000000 42.692016
RightHandThumb1 -24.326973 -0.000000 -32.862282
LeftUpLeg -2.916409 7.445176 0.079532
LeftLeg -7.682223 -0.000000 0.000000
LeftFoot -22.253303 28.398431 -17.345154
LeftToeBase 23.249866 -0.000000 -0.000000
RightUpLeg -5.051567 -9.279231 1.259522
RightLeg -3.957914 -0.000000 0.000000
RightFoot -21.018198 -21.872735 21.292252
RightToeBase 22.341372 -0.000000 -0.000000
